<?xml version="1.0" encoding="utf-8"?>
<!-- Generator: Adobe Illustrator 24.3.0, SVG Export Plug-In . SVG Version: 6.00 Build 0)  -->
<svg version="1.1" id="Layer_1" xmlns="http://www.w3.org/2000/svg" xmlns:xlink="http://www.w3.org/1999/xlink" x="0px" y="0px"
	 viewBox="0 0 512 512" style="enable-background:new 0 0 512 512;" xml:space="preserve">
<style type="text/css">
	.st0{fill:#F2B705;}
	.st1{fill:#DDDDDD;}
	.st2{fill:#141414;}
	.st3{display:none;}
	.st4{display:inline;fill:#DDDDDD;}
	.st5{display:inline;fill:#141414;}
	.st6{display:inline;fill:#F2B705;}
</style>
<g>
	<g id="BANDIRMA_TESLIM">
		<path class="st0" d="M314,309.58l-9.12,9.12l-7.32-7.32l9.12-9.12L314,309.58z M256,393.9c-18.55,0-33.64-15.09-33.64-33.64
			c0-18.55,15.09-33.64,33.64-33.64v-10.35c-24.26,0-43.99,19.73-43.99,43.99c0,24.26,19.73,43.99,43.99,43.99
			s43.99-19.73,43.99-43.99h-10.35C289.64,378.81,274.55,393.9,256,393.9z"/>
		<path class="st1" d="M297.4,203.87v43.17H144.86v-12.94l-0.68,0.34l-33.66-33.66c-3.09-3.09-1.2-8.37,3.14-8.81l66.9-6.69
			l24.78,18.58H297.4z"/>
		<path class="st2" d="M329.29,221.59c-0.91,1.81-2.73,2.86-4.63,2.86c-0.78,0-1.57-0.18-2.31-0.55l-9.26-4.63
			c-2.56-1.28-3.59-4.39-2.31-6.94c1.28-2.56,4.39-3.59,6.94-2.31l9.26,4.63C329.53,215.92,330.57,219.03,329.29,221.59z
			 M338.55,226.22c-1.28,2.56-0.24,5.67,2.31,6.94l9.26,4.63c0.74,0.37,1.53,0.55,2.31,0.55c1.9,0,3.73-1.05,4.63-2.86
			c1.28-2.56,0.24-5.67-2.31-6.94l-9.26-4.63C342.94,222.62,339.83,223.66,338.55,226.22z M445.97,188.6l-60.59,60.59v194.52
			c0,8.56-6.96,15.53-15.53,15.53H142.14c-8.56,0-15.53-6.96-15.53-15.53V249.19L66.03,188.6c-1.41-1.41-1.89-3.52-1.21-5.4
			c0.67-1.88,2.37-3.21,4.36-3.41l103.51-10.35c1.29-0.13,2.58,0.23,3.62,1.01l40.02,30.02h79.36l40.02-30.02
			c1.04-0.78,2.33-1.14,3.62-1.01l103.51,10.35c1.99,0.2,3.69,1.53,4.36,3.41C447.86,185.08,447.39,187.19,445.97,188.6z
			 M375.03,252.22H136.97v191.49c0,2.85,2.32,5.18,5.18,5.18h227.72c2.85,0,5.18-2.32,5.18-5.18V252.22z M430.93,189l-90.63-9.06
			l-37.72,28.29v23.29h-10.35v-20.7h-72.46v20.7h-10.35v-17.5l-1.25,0.63c-0.74,0.37-1.53,0.55-2.31,0.55
			c-1.9,0-3.73-1.05-4.63-2.86c-1.28-2.56-0.24-5.67,2.31-6.94l1.25-0.63l-33.09-24.82L81.07,189l51.74,51.74l15.18-7.59
			c2.56-1.28,5.67-0.24,6.94,2.31c1.12,2.24,0.46,4.91-1.45,6.4h212.32c0.06-0.6,0.23-1.2,0.51-1.77c1.28-2.56,4.39-3.59,6.94-2.31
			l5.92,2.96L430.93,189z M185.02,214.64l-18.52,9.26c-2.56,1.28-3.59,4.39-2.31,6.94c0.91,1.81,2.73,2.86,4.63,2.86
			c0.78,0,1.57-0.18,2.31-0.55l18.52-9.26c2.56-1.28,3.59-4.39,2.31-6.94C190.69,214.4,187.58,213.36,185.02,214.64z"/>
		<path class="st2" d="M207,150.93h-6.54v-6.54h6.54L207,150.93z M185.24,144.65l-4.63-4.63l4.62-4.62l4.62,4.62L185.24,144.65z
			 M222.2,144.61l-4.62-4.62l4.62-4.62l4.63,4.62L222.2,144.61z M174.28,124.82v-6.54h6.54v6.54L174.28,124.82z M233.12,124.77
			h-6.54v-6.54l6.54-0.01V124.77z M185.18,107.67l-4.63-4.62l4.63-4.63l4.62,4.62L185.18,107.67z M222.19,107.64l-4.62-4.62
			l4.62-4.63l4.63,4.63L222.19,107.64z M206.98,98.63h-6.6l-0.01-6.54h6.6V98.63z M259.75,82.64l-2.68-1.87l3.73-5.37l5.37,3.73
			l-3.73,5.37C259.75,82.64,262.44,84.5,259.75,82.64z M272.33,79.02l5.23-3.92l3.92,5.23l-5.23,3.92
			C272.33,79.02,276.26,84.25,272.33,79.02z M252.47,67.75l1.84-6.27l6.28,1.84l-1.84,6.28C252.47,67.75,258.74,69.59,252.47,67.75z
			 M278.38,66.11l-1.03-3.1l6.2-2.07l1.03,3.1l0,0l1.03,3.1l-6.2,2.06C278.38,66.11,279.42,69.21,278.38,66.11z M265.22,52.99
			l0.58-0.02v-0.1h2.98l2.97-0.11l0,0.11h0.58v6.54l-3.62,0.01l-3.27,0.11C265.22,52.99,265.45,59.53,265.22,52.99z"/>
		<path class="st0" d="M321.37,121.51c7.22,0,13.07,5.85,13.07,13.07s-5.85,13.07-13.07,13.07s-13.07-5.85-13.07-13.07
			S314.15,121.51,321.37,121.51z M131.79,108.44c0,3.61,2.93,6.54,6.54,6.54c3.61,0,6.54-2.93,6.54-6.54s-2.93-6.54-6.54-6.54
			C134.72,101.9,131.79,104.83,131.79,108.44z M367.14,108.44c0,3.61,2.93,6.54,6.54,6.54c3.61,0,6.54-2.93,6.54-6.54
			s-2.93-6.54-6.54-6.54C370.06,101.9,367.14,104.83,367.14,108.44z"/>
		<path class="st2" d="M261.18,293.17v-9.25h18.11v-10.35h-46.58v10.35h18.11v9.25c-34.69,2.65-62.1,31.73-62.1,67.08
			c0,37.1,30.18,67.28,67.28,67.28s67.28-30.18,67.28-67.28C323.28,324.9,295.87,295.83,261.18,293.17z M256,417.19
			c-31.39,0-56.93-25.54-56.93-56.93s25.54-56.93,56.93-56.93s56.93,25.54,56.93,56.93S287.39,417.19,256,417.19z M261.18,352.83
			v-35.27h-10.35v35.27c-2.34,1.64-3.88,4.36-3.88,7.43c0,4.99,4.06,9.06,9.06,9.06c4.99,0,9.06-4.06,9.06-9.06
			C265.06,357.19,263.52,354.47,261.18,352.83z M256,361.55c-0.71,0-1.29-0.58-1.29-1.29c0-0.71,0.58-1.29,1.29-1.29
			c0.71,0,1.29,0.58,1.29,1.29C257.29,360.97,256.71,361.55,256,361.55z"/>
	</g>
	<g id="GEL-AL" class="st3">
		<path class="st4" d="M297.4,209.05v43.17H144.86v-12.94l-0.68,0.34l-33.66-33.66c-3.09-3.09-1.2-8.37,3.14-8.81l66.9-6.69
			l24.78,18.58H297.4z"/>
		<path class="st5" d="M326.98,219.82l18.52,9.26c2.56,1.28,3.59,4.39,2.31,6.94c-0.91,1.81-2.73,2.86-4.63,2.86
			c-0.78,0-1.57-0.18-2.31-0.55l-18.52-9.26c-2.56-1.28-3.59-4.39-2.31-6.94C321.31,219.57,324.42,218.54,326.98,219.82z
			 M445.97,193.77l-60.59,60.59v184.17c0,8.56-6.96,15.53-15.53,15.53H142.14c-8.56,0-15.53-6.96-15.53-15.53V254.36l-60.59-60.59
			c-1.41-1.41-1.89-3.52-1.21-5.4c0.67-1.88,2.37-3.21,4.36-3.41l103.51-10.35c1.29-0.13,2.58,0.23,3.62,1.01l40.02,30.02h79.36
			l40.02-30.02c1.04-0.78,2.33-1.14,3.62-1.01l103.51,10.35c1.99,0.2,3.69,1.53,4.36,3.41
			C447.86,190.26,447.39,192.36,445.97,193.77z M375.03,257.39H136.97v181.14c0,2.85,2.32,5.18,5.18,5.18h227.72
			c2.85,0,5.18-2.32,5.18-5.18V257.39z M430.93,194.18l-90.63-9.06l-33.09,24.82l1.25,0.63c2.56,1.28,3.59,4.39,2.31,6.94
			c-0.91,1.81-2.73,2.86-4.63,2.86c-0.78,0-1.57-0.18-2.31-0.55l-1.25-0.63v17.5h-10.35v-20.7h-72.46v20.7h-10.35v-17.5l-1.25,0.63
			c-0.74,0.37-1.53,0.55-2.31,0.55c-1.9,0-3.73-1.05-4.63-2.86c-1.28-2.56-0.24-5.67,2.31-6.94l1.25-0.63l-33.09-24.82l-90.63,9.06
			l51.74,51.74l15.18-7.59c2.56-1.28,5.67-0.24,6.94,2.31c1.12,2.24,0.46,4.91-1.45,6.4h205.03c-1.91-1.48-2.57-4.15-1.45-6.4
			c1.28-2.56,4.39-3.59,6.94-2.31l15.18,7.59L430.93,194.18z M185.02,219.82l-18.52,9.26c-2.56,1.28-3.59,4.39-2.31,6.94
			c0.91,1.81,2.73,2.86,4.63,2.86c0.78,0,1.57-0.18,2.31-0.55l18.52-9.26c2.56-1.28,3.59-4.39,2.31-6.94
			C190.69,219.57,187.58,218.54,185.02,219.82z"/>
		<path class="st5" d="M207,156.1h-6.54v-6.54h6.54L207,156.1z M185.24,149.82l-4.63-4.63l4.62-4.62l4.62,4.62L185.24,149.82z
			 M222.2,149.79l-4.62-4.62l4.62-4.62l4.63,4.62L222.2,149.79z M174.28,130v-6.54h6.54v6.54L174.28,130z M233.12,129.95h-6.54
			v-6.54l6.54-0.01V129.95z M185.18,112.85l-4.63-4.62l4.63-4.63l4.62,4.62L185.18,112.85z M222.19,112.82l-4.62-4.62l4.62-4.63
			l4.63,4.63L222.19,112.82z M206.98,103.8h-6.6l-0.01-6.54h6.6V103.8z M259.75,87.81l-2.68-1.87l3.73-5.37l5.37,3.73l-3.73,5.37
			C259.75,87.81,262.43,89.68,259.75,87.81z M272.34,84.2l5.23-3.92l3.92,5.23l-5.23,3.92C272.34,84.2,276.26,89.43,272.34,84.2z
			 M252.47,72.92l1.84-6.27l6.27,1.84l-1.84,6.28C252.47,72.92,258.74,74.76,252.47,72.92z M278.38,71.29l-1.03-3.1l6.2-2.07
			l2.06,6.2l-6.2,2.06C278.38,71.29,279.41,74.39,278.38,71.29z M265.23,58.17l0.58-0.02v-0.1h2.99l2.96-0.1l0,0.1h0.58v6.54
			l-3.62,0.01l0,0l-3.27,0.11C265.23,58.17,265.46,64.7,265.23,58.17z"/>
		<path class="st6" d="M321.37,126.68c7.22,0,13.07,5.85,13.07,13.07s-5.85,13.07-13.07,13.07c-7.22,0-13.07-5.85-13.07-13.07
			S314.15,126.68,321.37,126.68z M131.79,113.61c0,3.61,2.93,6.54,6.54,6.54c3.61,0,6.54-2.93,6.54-6.54s-2.93-6.54-6.54-6.54
			C134.72,107.07,131.79,110,131.79,113.61z M367.14,113.61c0,3.61,2.93,6.54,6.54,6.54c3.61,0,6.54-2.93,6.54-6.54
			s-2.93-6.54-6.54-6.54C370.06,107.07,367.14,110,367.14,113.61z"/>
		<path class="st6" d="M338.81,337.4h-4.38h-96.09v-29.09c0-9.74,7.93-17.67,17.67-17.67c9.74,0,17.67,7.93,17.67,17.67v17.13h10.35
			v-17.13c0-15.45-12.57-28.02-28.02-28.02s-28.02,12.57-28.02,28.02v29.09h-50.41h-4.38c-2.86,0-5.18,2.32-5.18,5.18
			c0,2.86,2.32,5.18,5.18,5.18h7.62l16.7,53.4c3.68,11.76,14.42,19.66,26.74,19.66h63.5c12.32,0,23.07-7.9,26.74-19.66l16.7-53.4
			h7.62c2.86,0,5.18-2.32,5.18-5.18C343.98,339.72,341.67,337.4,338.81,337.4z M304.61,398.06c-2.32,7.41-9.09,12.4-16.86,12.4
			h-63.5c-7.77,0-14.54-4.98-16.86-12.4l-15.73-50.31h128.69L304.61,398.06z M250.82,385.96v-18.28c0-2.86,2.32-5.18,5.18-5.18
			c2.86,0,5.18,2.32,5.18,5.18v18.28c0,2.86-2.32,5.18-5.18,5.18C253.14,391.14,250.82,388.82,250.82,385.96z M233.16,362.51
			c2.86,0,5.18,2.32,5.18,5.18v18.28c0,2.86-2.32,5.18-5.18,5.18c-2.86,0-5.18-2.32-5.18-5.18v-18.28
			C227.98,364.83,230.3,362.51,233.16,362.51z M273.67,385.96v-18.28c0-2.86,2.32-5.18,5.18-5.18c2.86,0,5.18,2.32,5.18,5.18v18.28
			c0,2.86-2.32,5.18-5.18,5.18C275.98,391.14,273.67,388.82,273.67,385.96z"/>
	</g>
	<g id="ONLINE_SIPARIS" class="st3">
		<path class="st4" d="M297.4,209.05v43.17H144.86v-12.94l-0.68,0.34l-33.66-33.66c-3.09-3.09-1.2-8.37,3.14-8.81l66.9-6.69
			l24.78,18.58H297.4z"/>
		<path class="st5" d="M326.98,219.82l18.52,9.26c2.56,1.28,3.59,4.39,2.31,6.94c-0.91,1.81-2.73,2.86-4.63,2.86
			c-0.78,0-1.57-0.18-2.31-0.55l-18.52-9.26c-2.56-1.28-3.59-4.39-2.31-6.94C321.31,219.58,324.42,218.54,326.98,219.82z
			 M445.97,193.78l-60.59,60.59v184.17c0,8.56-6.96,15.53-15.53,15.53H142.14c-8.56,0-15.53-6.96-15.53-15.53V254.36l-60.59-60.59
			c-1.41-1.41-1.89-3.52-1.21-5.4c0.67-1.88,2.37-3.21,4.36-3.41l103.51-10.35c1.29-0.13,2.58,0.23,3.62,1.01l40.02,30.02h79.36
			l40.02-30.02c1.04-0.78,2.33-1.14,3.62-1.01l103.51,10.35c1.99,0.2,3.69,1.53,4.36,3.41
			C447.86,190.26,447.39,192.36,445.97,193.78z M375.03,257.4H136.97v181.14c0,2.85,2.32,5.18,5.18,5.18h227.72
			c2.85,0,5.18-2.32,5.18-5.18V257.4z M430.93,194.18l-90.63-9.06l-33.09,24.82l1.25,0.63c2.56,1.28,3.59,4.39,2.31,6.94
			c-0.91,1.81-2.73,2.86-4.63,2.86c-0.78,0-1.57-0.18-2.31-0.55l-1.25-0.63v17.5h-10.35v-20.7h-72.46v20.7h-10.35v-17.5l-1.25,0.63
			c-0.74,0.37-1.53,0.55-2.31,0.55c-1.9,0-3.73-1.05-4.63-2.86c-1.28-2.56-0.24-5.67,2.31-6.94l1.25-0.63l-33.09-24.82l-90.63,9.06
			l51.74,51.74l15.18-7.59c2.56-1.28,5.67-0.24,6.94,2.31c1.12,2.24,0.46,4.91-1.45,6.4h205.03c-1.91-1.48-2.57-4.15-1.45-6.4
			c1.28-2.56,4.39-3.59,6.94-2.31l15.18,7.59L430.93,194.18z M185.02,219.82l-18.52,9.26c-2.56,1.28-3.59,4.39-2.31,6.94
			c0.91,1.81,2.73,2.86,4.63,2.86c0.78,0,1.57-0.18,2.31-0.55l18.52-9.26c2.56-1.28,3.59-4.39,2.31-6.94
			C190.69,219.58,187.58,218.54,185.02,219.82z"/>
		<path class="st5" d="M207,156.1h-6.54v-6.54h6.54L207,156.1z M185.24,149.83l-4.63-4.63l4.62-4.62l4.62,4.62L185.24,149.83z
			 M222.2,149.79l-4.62-4.62l4.62-4.62l4.63,4.62L222.2,149.79z M174.28,130v-6.54h6.54v6.54L174.28,130z M233.12,129.95h-6.54
			v-6.54l6.54-0.01V129.95z M185.18,112.85l-4.63-4.62l4.63-4.63l4.62,4.62L185.18,112.85z M222.19,112.82l-4.62-4.62l4.62-4.63
			l4.63,4.63L222.19,112.82z M206.98,103.81h-6.6l-0.01-6.54h6.6V103.81z M259.75,87.81l-2.68-1.87l3.73-5.37l5.37,3.73l-3.73,5.37
			C259.75,87.81,262.44,89.68,259.75,87.81z M272.34,84.2l5.23-3.92l3.92,5.23l-5.23,3.92C272.34,84.2,276.26,89.43,272.34,84.2z
			 M252.47,72.92l1.84-6.27l6.28,1.84l-1.84,6.28C252.47,72.92,258.74,74.76,252.47,72.92z M278.38,71.29l-1.03-3.1l6.2-2.06
			l2.06,6.2l-6.2,2.06C278.38,71.29,279.41,74.39,278.38,71.29z M265.22,58.17l0.58-0.02v-0.1h2.97l2.98-0.11l0,0.11h0.58v6.54
			l-3.62,0.01l-3.26,0.11C265.22,58.17,265.46,64.7,265.22,58.17z"/>
		<path class="st6" d="M321.37,126.69c7.22,0,13.07,5.85,13.07,13.07c0,7.22-5.85,13.07-13.07,13.07c-7.22,0-13.07-5.85-13.07-13.07
			C308.3,132.54,314.15,126.69,321.37,126.69z M131.79,113.61c0,3.61,2.93,6.54,6.54,6.54c3.61,0,6.54-2.93,6.54-6.54
			s-2.93-6.54-6.54-6.54C134.72,107.07,131.79,110,131.79,113.61z M367.14,113.61c0,3.61,2.93,6.54,6.54,6.54
			c3.61,0,6.54-2.93,6.54-6.54s-2.93-6.54-6.54-6.54C370.06,107.07,367.14,110,367.14,113.61z"/>
		<path class="st5" d="M288.71,373.94c-0.21,0-0.42,0-0.63,0h-2.9c-1.65,0-3.19,0.78-4.17,2.11c-0.68,0.93-1.48,1.8-2.39,2.61l0,0
			l-2.82-16.39c9.45-9.15,14.89-21.79,14.89-35.21v-18.1h-10.35v18.1c0,7.97-2.44,15.6-6.82,21.96c-2.41,3.5-5.41,6.61-8.91,9.2
			c-0.49,0.36-1,0.71-1.51,1.06c-0.84,0.56-1.81,0.85-2.82,0.85h-8.54c-1.01,0-1.98-0.29-2.82-0.85c-0.61-0.41-1.21-0.83-1.8-1.28
			c-3.51-2.64-6.5-5.81-8.89-9.37c-4.22-6.28-6.56-13.76-6.56-21.58V315.2c-1.36,0.13-2.54,0.28-3.58,0.46
			c-0.57,0.09-1.09,0.2-1.59,0.31c-1.25,0.27-2.33,0.57-3.38,0.88l-0.79,0.23c-0.34,0.1-0.67,0.2-1.01,0.3v9.67
			c0,0.35,0,0.69,0.01,1.04c0.27,12.9,5.56,25.01,14.59,33.9l-2.83,16.4c-0.79-0.73-1.49-1.52-2.1-2.34
			c-0.98-1.33-2.52-2.11-4.17-2.11h-2.9c-0.21,0-0.42,0-0.62,0c-29.05,0.26-52.68,24.44-52.68,53.91h10.35
			c0-16.17,8.77-30.36,21.73-37.88v40.2h10.35v-44.49c3.31-0.88,6.78-1.36,10.34-1.39c0.17,0,0.35,0,0.52,0h0.46
			c2.46,2.7,5.57,4.99,9.16,6.81c0,0,0,0,0.01,0.01c0,0,0,0,0,0c0.65,0.54,1.44,0.92,2.32,1.08c0,0,0,0,0,0
			c5.81,2.49,12.7,3.85,20.12,3.85c7.71,0,14.84-1.47,20.79-4.14c0.01,0,0.02-0.01,0.03-0.01c0.09-0.04,0.18-0.08,0.27-0.12
			c4.18-1.92,7.76-4.44,10.53-7.48h0.46c0.17,0,0.35,0,0.53,0c3.56,0.03,7.03,0.51,10.34,1.39v44.49h10.35v-40.2
			c12.95,7.51,21.73,21.71,21.73,37.88h10.35C341.38,398.38,317.75,374.2,288.71,373.94z M242.67,383.74l2.54-14.7
			c2.03,0.95,4.25,1.45,6.52,1.45h8.54c2.16,0,4.27-0.45,6.22-1.31l2.53,14.66c-3.85,1.2-8.27,1.85-13.02,1.85
			C251.12,385.69,246.59,385.01,242.67,383.74z M262.7,414.65h20.72V425H262.7V414.65z"/>
		<path class="st6" d="M293.18,310.86l-0.62-3.6c-0.01-0.47-0.08-0.93-0.22-1.39c-0.02-0.05-0.03-0.1-0.05-0.16l-2.41-13.87
			c-1.46-8.39-8.06-15.1-16.42-16.69l-4.48-0.85c-1.35-0.26-2.71-0.47-4.06-0.65l0,0l-2.4-2.4c-0.97-0.97-2.29-1.52-3.66-1.52h-5.7
			c-1.37,0-2.69,0.55-3.66,1.52l-2.4,2.4c-1.36,0.17-2.71,0.39-4.07,0.65l-4.48,0.85c-8.36,1.59-14.96,8.3-16.42,16.68l-2.17,12.45
			l-12.08,8.46c-0.88,0.62-1.55,1.49-1.91,2.51c-1.24,3.47-0.56,7.23,1.79,10.06c2.35,2.82,5.92,4.16,9.55,3.57
			c1.55-0.25,2.86-0.52,4.01-0.79c1.54-0.37,2.79-0.74,3.96-1.09c0.41-0.12,0.81-0.24,1.21-0.36c1.48-0.42,2.99-0.79,5.18-1.04
			c1.99-0.23,4.55-0.37,8.16-0.37c0.89,0,1.72,0.01,2.5,0.03c4.74,0.09,7.57,0.47,9.97,0.99c1.18,0.25,2.26,0.54,3.41,0.85
			c1.12,0.3,2.31,0.62,3.69,0.94c1.23,0.28,2.61,0.57,4.23,0.83c0.71,0.11,1.82,0.25,3.21,0.25c0.95,0,2.03-0.06,3.2-0.23
			c3.08-0.45,6.76-1.64,10.29-4.44c1.45-1.15,2.88-2.57,4.22-4.32c0.04-0.05,0.07-0.09,0.1-0.13l0.86-1.19l1.45-2.01
			c1.27,0.28,2.6,0.07,3.73-0.59c0.22-0.13,0.42-0.27,0.62-0.43C292.79,314.61,293.5,312.72,293.18,310.86z M279.67,293.61l1.06,6.1
			c-8.04-2.23-16.29-3.35-24.55-3.37c0.35-4.7,1.15-8.16,1.93-10.55c0.3-0.92,0.6-1.68,0.87-2.29c2.69,0.14,5.38,0.46,8.05,0.97
			l0.79,0.15l3.69,0.7C275.67,286.11,278.95,289.44,279.67,293.61z M232.33,293.61c0.72-4.17,4-7.5,8.16-8.29l3.69-0.7l0.79-0.15
			c0.96-0.18,1.91-0.34,2.88-0.48c-0.16,0.57-0.32,1.17-0.48,1.8c-0.73,3-1.34,6.67-1.59,11.12c-4.88,0.54-9.73,1.47-14.51,2.8
			L232.33,293.61z M276.3,313.9c-4.07,5.25-9.05,5.08-11.01,4.77c-2.9-0.47-4.93-1.02-6.88-1.54c-4.25-1.15-8.26-2.23-18.58-2.23
			c-3.36,0-6,0.12-8.16,0.31c-1.36,0.13-2.54,0.28-3.58,0.46c-0.57,0.09-1.09,0.2-1.59,0.31c-1.25,0.27-2.33,0.57-3.38,0.88
			l-0.79,0.23c-0.34,0.1-0.67,0.2-1.01,0.3c-0.96,0.28-1.96,0.55-3.17,0.82l3-2.1l0.17-0.12l5.18-3.62l0.58-0.4
			c1.52-0.57,3.06-1.1,4.6-1.58c1.72-0.53,3.46-1.01,5.2-1.43c12.59-3.01,25.68-3.01,38.27,0c1.32,0.32,2.64,0.67,3.96,1.05
			l-2.37,3.3L276.3,313.9z"/>
	</g>
</g>
</svg>
