<?xml version="1.0" encoding="utf-8"?>
<!-- Generator: Adobe Illustrator 24.3.0, SVG Export Plug-In . SVG Version: 6.00 Build 0)  -->
<svg version="1.1" id="Layer_1" xmlns="http://www.w3.org/2000/svg" xmlns:xlink="http://www.w3.org/1999/xlink" x="0px" y="0px"
	 viewBox="0 0 512 512" style="enable-background:new 0 0 512 512;" xml:space="preserve">
<style type="text/css">
	.st0{display:none;}
	.st1{display:inline;}
</style>
<g>
	<g>
		<path d="M412.55,154.98H99.45c-9.88,0-17.89-8.01-17.89-17.89c0-9.88,8.01-17.89,17.89-17.89h313.09
			c9.88,0,17.89,8.01,17.89,17.89C430.44,146.97,422.43,154.98,412.55,154.98z"/>
	</g>
	<g>
		<path d="M412.55,392.8H99.45c-9.88,0-17.89-8.01-17.89-17.89c0-9.88,8.01-17.89,17.89-17.89h313.09c9.88,0,17.89,8.01,17.89,17.89
			C430.44,384.79,422.43,392.8,412.55,392.8z"/>
	</g>
	<g>
		<path d="M412.55,273.9H99.45c-9.88,0-17.89-8.01-17.89-17.89s8.01-17.89,17.89-17.89h313.09c9.88,0,17.89,8.01,17.89,17.89
			S422.43,273.9,412.55,273.9z"/>
	</g>
</g>
<g class="st0">
	<g class="st1">
		<path d="M256,352.23c-4.74,0-9.3-1.89-12.66-5.24L86.79,190.31c-6.98-7-6.98-18.32,0.01-25.31c6.99-6.97,18.32-6.98,25.31,0.01
			L256,309.02l143.89-144.01c6.99-6.99,18.32-6.98,25.31-0.01c6.99,6.99,6.99,18.31,0.01,25.31L268.66,346.99
			C265.3,350.34,260.74,352.23,256,352.23z"/>
	</g>
</g>
<g class="st0">
	<g class="st1">
		<g>
			<path d="M337.78,435H174.21c-29.65,0-53.77-24.11-53.77-53.76V264.16c0-9.93,8.05-17.98,17.98-17.98
				c9.93,0,17.98,8.05,17.98,17.98v117.08c0,9.81,7.98,17.8,17.8,17.8h163.57c9.81,0,17.8-7.99,17.8-17.8V264.16
				c0-9.93,8.05-17.98,17.98-17.98s17.98,8.05,17.98,17.98v117.08C391.54,410.89,367.42,435,337.78,435z"/>
		</g>
		<g>
			<path d="M417.01,244.15c-4,0-8.01-1.33-11.35-4.04L256,118.18L106.33,240.11c-7.69,6.26-19.02,5.13-25.3-2.59
				c-6.27-7.7-5.11-19.03,2.59-25.3L244.64,81.04c6.61-5.39,16.1-5.39,22.71,0l161.02,131.18c7.7,6.27,8.86,17.6,2.59,25.3
				C427.4,241.89,422.23,244.15,417.01,244.15z"/>
		</g>
	</g>
	<g class="st1">
		<circle cx="256" cy="278.37" r="35.78"/>
	</g>
</g>
<g class="st0">
	<g class="st1">
		<path d="M184.47,276.86c-1.42,0-2.86-0.17-4.3-0.52l-79.4-19.55c-14.83-3.65-25.16-15.86-26.3-31.1
			c-1.14-15.24,7.27-28.85,21.41-34.65L384.3,72.64c9.17-3.76,19.59,0.62,23.35,9.75c3.75,9.14-0.62,19.59-9.76,23.35L112.62,222.86
			l76.12,18.74c9.59,2.36,15.45,12.06,13.1,21.65C199.82,271.4,192.51,276.86,184.47,276.86z"/>
	</g>
	<g class="st1">
		<path d="M255.37,425.49c-2.32,0-4.67-0.23-7.03-0.7c-15.58-3.12-26.74-15.86-27.8-31.71l-6.98-105.52
			c-1.01-15.36,4.62-30.44,15.48-41.37l41.43-41.7c6.97-7.01,18.31-7.05,25.3-0.09c7.01,6.96,7.05,18.29,0.09,25.3l-41.43,41.71
			c-3.62,3.64-5.49,8.67-5.16,13.79l6.72,101.44l139.34-280.06c-8.47,2.04-17.36-2.31-20.76-10.59c-3.76-9.14,0.6-19.59,9.74-23.34
			c13.48-5.53,28.63-2.22,38.55,8.46c9.94,10.68,12.16,26.02,5.67,39.07L286.19,406.23C280.19,418.29,268.33,425.49,255.37,425.49z
			 M256.25,390.72h0.09H256.25z"/>
	</g>
</g>
<g class="st0">
	<g class="st1">
		<path d="M253.29,426.57c-45.81,0-91.63-17.44-126.5-52.32c-56.68-56.67-68.72-144.92-29.27-214.59
			c4.87-8.6,15.77-11.63,24.38-6.75c8.6,4.87,11.62,15.79,6.75,24.38c-31.55,55.73-21.92,126.31,23.43,171.66
			c55.8,55.81,146.61,55.8,202.42,0c55.8-55.8,55.8-146.61,0-202.42c-55.81-55.8-146.61-55.8-202.42,0c-6.99,6.99-18.31,6.99-25.3,0
			c-6.99-6.98-6.99-18.31,0-25.3c69.76-69.77,183.28-69.76,253.02,0c69.76,69.76,69.76,183.26,0,253.02
			C344.93,409.14,299.11,426.57,253.29,426.57z"/>
	</g>
	<g class="st1">
		<path d="M170.46,348.47c-4.67,0-9.24-1.83-12.65-5.24c-4.7-4.7-6.4-11.61-4.44-17.95l39.24-126.42
			c1.75-5.63,6.16-10.04,11.78-11.78l126.43-39.25c6.32-1.97,13.25-0.27,17.95,4.44c4.7,4.7,6.4,11.61,4.44,17.95l-39.24,126.43
			c-1.75,5.63-6.16,10.04-11.78,11.78l-126.43,39.24C174.03,348.21,172.23,348.47,170.46,348.47z M223.99,218.45l-26.36,84.96
			l84.97-26.37l26.36-84.97L223.99,218.45z"/>
	</g>
	<g class="st1">
		<path d="M253.47,270.11c-12.34,0-22.41-10.01-22.41-22.36s9.97-22.36,22.32-22.36h0.09c12.35,0,22.36,10.01,22.36,22.36
			S265.82,270.11,253.47,270.11z"/>
	</g>
</g>
<g class="st0">
	<circle class="st1" cx="224.32" cy="359.88" r="31.31"/>
	<circle class="st1" cx="350.87" cy="359.88" r="31.31"/>
	<path class="st1" d="M419.13,121.87c-8.53-10.33-21.1-16.26-34.37-16.26l-183.71-1.31c-9.94-0.23-17.95,7.88-18.02,17.76
		s7.88,17.95,17.76,18.02l183.83,1.31c3.67,0,5.9,2.04,6.9,3.25c1,1.21,2.58,3.79,1.88,7.39l-20.49,106.02
		c-0.81,4.2-4.51,7.25-8.78,7.25H203.24c-4.28,0-7.97-3.05-8.78-7.25l-22.47-116.2c-4.06-21-22.53-36.24-43.91-36.24H95.11
		c-9.88,0-17.89,8.01-17.89,17.89s8.01,17.89,17.89,17.89h32.97c4.28,0,7.97,3.05,8.78,7.25l22.47,116.2
		c4.06,21,22.53,36.24,43.91,36.24h160.89c21.39,0,39.85-15.24,43.92-36.24l20.5-106.02C431.08,145.68,427.65,132.2,419.13,121.87z"
		/>
</g>
</svg>
